<?xml version="1.0" encoding="iso-8859-1"?>
<!-- Generator: Adobe Illustrator 19.0.0, SVG Export Plug-In . SVG Version: 6.00 Build 0)  -->
<svg version="1.1" id="Layer_1" xmlns="http://www.w3.org/2000/svg" xmlns:xlink="http://www.w3.org/1999/xlink" x="0px" y="0px"
	 viewBox="0 0 512 512" style="enable-background:new 0 0 512 512;" xml:space="preserve">
<g>
	<path style="fill:#FF9839;" d="M147.391,215.712c0,37.884-30.711,68.596-68.596,68.596s-68.596-30.712-68.596-68.596H147.391z"/>
	<path style="fill:#FF9839;" d="M501.801,215.712c0,37.884-30.711,68.596-68.596,68.596s-68.596-30.711-68.596-68.596
		L501.801,215.712L501.801,215.712z"/>
</g>
<path style="fill:#FFD890;" d="M204.034,443.325c0-28.701,23.266-51.966,51.966-51.966s51.966,23.266,51.966,51.966H204.034z"/>
<g>
	<path style="fill:#4C1D1D;" d="M477.662,166.566c-5.457,1.398-8.747,6.955-7.35,12.411c0.407,1.59,0.786,3.184,1.124,4.739
		c1.04,4.773,5.263,8.031,9.956,8.031c0.719,0,1.449-0.076,2.181-0.236c5.503-1.198,8.994-6.632,7.796-12.136
		c-0.392-1.794-0.827-3.631-1.295-5.46C488.676,168.46,483.124,165.169,477.662,166.566z"/>
	<path style="fill:#4C1D1D;" d="M501.801,205.513H392.877c3.373-40.183,27.89-74.651,40.345-89.78
		c6.282,7.601,15.618,20.101,23.783,35.834c2.593,4.999,8.75,6.95,13.75,4.355c5-2.594,6.95-8.751,4.356-13.751
		c-8.016-15.448-17.008-28.019-23.83-36.567c15.011-3.772,29.144-11.551,40.752-23.158l7.106-7.106
		c3.984-3.983,3.984-10.441,0.001-14.424s-10.44-3.983-14.424,0l-7.108,7.107c-22.147,22.147-56.261,26.178-82.96,9.804
		c-28.765-17.642-65.622-17.136-93.893,1.289l-34.555,22.519V67.088c0-5.633-4.567-10.199-10.199-10.199
		c-5.633,0-10.199,4.566-10.199,10.199v35.902l-36.636-23.875c-28.27-18.424-65.126-18.93-93.894-1.289
		c-26.698,16.375-60.814,12.342-82.959-9.804l-7.106-7.106c-3.983-3.983-10.442-3.983-14.424,0c-3.983,3.983-3.983,10.441,0,14.425
		l7.106,7.106c12.049,12.049,26.823,19.965,42.473,23.562c-14.804,18.584-39.283,55.502-42.367,99.505h-7.794
		C4.566,205.514,0,210.08,0,215.713c0,43.448,35.347,78.795,78.795,78.795s78.795-35.347,78.795-78.795
		c0-5.633-4.566-10.199-10.199-10.199h-7.793c-3.061-43.664-27.187-80.351-42.023-99.071c9.807-2.017,19.406-5.733,28.363-11.226
		c22.087-13.547,50.386-13.157,72.092,0.989l47.771,31.132V382.01c-26.647,4.418-47.614,25.836-51.356,52.702h-21.008
		c-5.633,0-10.199,4.566-10.199,10.199s4.566,10.199,10.199,10.199h165.127c5.632,0,10.199-4.566,10.199-10.199
		s-4.567-10.199-10.199-10.199h-21.008c-3.741-26.867-24.709-48.284-51.356-52.702V125.983l45.694-29.778
		c21.708-14.147,50.005-14.534,72.092-0.99c9.505,5.829,19.732,9.659,30.164,11.577c-14.857,18.825-38.704,55.326-41.746,98.72
		h-7.793c-5.632,0-10.199,4.566-10.199,10.199c0,43.448,35.347,78.795,78.795,78.795S512,259.16,512,215.712
		C512,210.079,507.433,205.513,501.801,205.513z M78.795,274.109c-28.721,0-52.667-20.843-57.505-48.197H136.3
		C131.462,253.266,107.516,274.109,78.795,274.109z M38.467,205.513c3.372-40.177,27.883-74.64,40.34-89.773
		c12.469,15.105,36.958,49.486,40.317,89.773H38.467z M296.508,433.125h-81.015c4.563-18.117,20.994-31.569,40.507-31.569
		C275.513,401.557,291.944,415.009,296.508,433.125z M433.205,274.109c-28.721,0-52.667-20.843-57.505-48.197h115.01
		C485.872,253.266,461.926,274.109,433.205,274.109z"/>
</g>
<g>
</g>
<g>
</g>
<g>
</g>
<g>
</g>
<g>
</g>
<g>
</g>
<g>
</g>
<g>
</g>
<g>
</g>
<g>
</g>
<g>
</g>
<g>
</g>
<g>
</g>
<g>
</g>
<g>
</g>
</svg>
