<?xml version="1.0" encoding="iso-8859-1"?>
<!-- Generator: Adobe Illustrator 19.1.0, SVG Export Plug-In . SVG Version: 6.00 Build 0)  -->
<svg version="1.1" id="Capa_1" xmlns="http://www.w3.org/2000/svg" xmlns:xlink="http://www.w3.org/1999/xlink" x="0px" y="0px"
	 viewBox="0 0 485.72 485.72" style="enable-background:new 0 0 485.72 485.72;" xml:space="preserve">
<g>
	<g id="XMLID_23_">
		<g>
			<path style="fill:#E55A42;" d="M284.855,416.48v42c0,6.61-5.38,11.99-11.99,11.99c-6.62,0-12-5.38-12-11.99v-42
				c0-6.62,5.38-12,12-12C279.475,404.48,284.855,409.86,284.855,416.48z"/>
			<path style="fill:#E55A42;" d="M224.865,366.98v42c0,6.61-5.39,12-12,12c-6.62,0-12-5.39-12-12v-42c0-6.62,5.38-12,12-12
				C219.475,354.98,224.865,360.36,224.865,366.98z"/>
			<path style="fill:#E2C744;" d="M242.865,18.35l105.63,105.64h-1.39v158.99h-208.49V123.99h-1.39L242.865,18.35z M311.105,204.34
				c0-37.63-30.61-68.25-68.24-68.25s-68.25,30.62-68.25,68.25s30.62,68.24,68.25,68.24S311.105,241.97,311.105,204.34z
				 M269.865,117.29v-31.5c0-14.88-12.12-27-27-27c-7.44,0-14.2,3.03-19.08,7.92c-4.89,4.89-7.92,11.64-7.92,19.08v31.5
				c0,4.14,3.36,7.5,7.5,7.5h39C266.505,124.79,269.865,121.43,269.865,117.29z"/>
			<path d="M395.155,149.44c2.93,2.93,2.93,7.67,0,10.6c-1.46,1.47-3.38,2.2-5.3,2.2c-1.92,0-3.84-0.73-5.3-2.2l-22.45-22.44v152.88
				c0,4.15-3.36,7.5-7.5,7.5h-74.24v92.57c11.24,3.25,19.49,13.64,19.49,25.93v42c0,14.88-12.11,26.99-26.99,26.99
				c-14.89,0-27-12.11-27-26.99v-42c0-12.29,8.25-22.68,19.5-25.93v-92.57h-45v43.07c11.25,3.26,19.5,13.64,19.5,25.93v42
				c0,14.88-12.11,27-27,27s-27-12.12-27-27v-42c0-12.29,8.25-22.67,19.5-25.93v-43.07h-74.25c-4.14,0-7.5-3.35-7.5-7.5V137.6
				l-22.44,22.44c-2.93,2.93-7.68,2.93-10.61,0c-2.93-2.93-2.93-7.67,0-10.6l146.99-147c1.41-1.4,3.32-2.19,5.31-2.19
				c1.99,0,3.89,0.79,5.3,2.19L395.155,149.44z M348.495,123.99L242.865,18.35l-105.64,105.64h1.39v158.99h208.49V123.99H348.495z
				 M284.855,458.48v-42c0-6.62-5.38-12-11.99-12c-6.62,0-12,5.38-12,12v42c0,6.61,5.38,11.99,12,11.99
				C279.475,470.47,284.855,465.09,284.855,458.48z M224.865,408.98v-42c0-6.62-5.39-12-12-12c-6.62,0-12,5.38-12,12v42
				c0,6.61,5.38,12,12,12C219.475,420.98,224.865,415.59,224.865,408.98z"/>
			<path d="M242.865,136.09c37.63,0,68.24,30.62,68.24,68.25s-30.61,68.24-68.24,68.24s-68.25-30.61-68.25-68.24
				S205.235,136.09,242.865,136.09z M296.105,204.34c0-29.36-23.88-53.25-53.24-53.25s-53.25,23.89-53.25,53.25
				s23.89,53.24,53.25,53.24S296.105,233.7,296.105,204.34z"/>
			<path d="M269.865,85.79v31.5c0,4.14-3.36,7.5-7.5,7.5h-39c-4.14,0-7.5-3.36-7.5-7.5v-31.5c0-7.44,3.03-14.19,7.92-19.08
				c4.88-4.89,11.64-7.92,19.08-7.92C257.745,58.79,269.865,70.91,269.865,85.79z M254.865,109.79v-24c0-6.61-5.39-12-12-12
				c-6.62,0-12,5.39-12,12v24H254.865z"/>
			<path d="M261.615,196.84c4.14,0,7.5,3.36,7.5,7.5s-3.36,7.5-7.5,7.5h-18.75c-4.15,0-7.5-3.36-7.5-7.5v-35.25
				c0-4.14,3.35-7.5,7.5-7.5c4.14,0,7.5,3.36,7.5,7.5v27.75H261.615z"/>
		</g>
		<g>
		</g>
	</g>
</g>
<g>
</g>
<g>
</g>
<g>
</g>
<g>
</g>
<g>
</g>
<g>
</g>
<g>
</g>
<g>
</g>
<g>
</g>
<g>
</g>
<g>
</g>
<g>
</g>
<g>
</g>
<g>
</g>
<g>
</g>
</svg>
