<?xml version="1.0" encoding="iso-8859-1"?>
<!-- Generator: Adobe Illustrator 19.0.0, SVG Export Plug-In . SVG Version: 6.00 Build 0)  -->
<svg version="1.1" id="Layer_1" xmlns="http://www.w3.org/2000/svg" xmlns:xlink="http://www.w3.org/1999/xlink" x="0px" y="0px"
	 viewBox="0 0 512 512" style="enable-background:new 0 0 512 512;" xml:space="preserve">
<path style="fill:#FBB071;" d="M404.301,456.111H107.698c-9.864,0-17.86-7.997-17.86-17.86V275.722c0-9.864,7.997-17.86,17.86-17.86
	h296.603c9.864,0,17.86,7.997,17.86,17.86v162.528C422.161,448.114,414.165,456.111,404.301,456.111z"/>
<path style="fill:#FF835D;" d="M404.301,257.861H255.999V456.11h148.301c9.864,0,17.86-7.997,17.86-17.86V275.722
	C422.161,265.858,414.165,257.861,404.301,257.861z"/>
<rect x="299.484" y="257.857" style="fill:#F6D86E;" width="35.721" height="198.251"/>
<g>
	<rect x="176.794" y="257.857" style="fill:#FAE8AC;" width="35.721" height="198.251"/>
	<path style="fill:#FAE8AC;" d="M300.784,237.693h-89.57c-9.864,0-17.86-7.997-17.86-17.86V17.86c0-9.864,7.997-17.86,17.86-17.86
		h89.57c9.864,0,17.86,7.997,17.86,17.86v201.972C318.644,229.696,310.648,237.693,300.784,237.693z"/>
</g>
<g>
	<path style="fill:#F6D86E;" d="M300.784,0h-44.785v237.693h44.785c9.864,0,17.86-7.997,17.86-17.86V17.86
		C318.644,7.997,310.648,0,300.784,0z"/>
	<path style="fill:#F6D86E;" d="M445.406,293.582H66.593c-9.864,0-17.86-7.997-17.86-17.86v-55.889c0-9.864,7.997-17.86,17.86-17.86
		h378.815c9.864,0,17.86,7.997,17.86,17.86v55.889C463.267,285.586,455.27,293.582,445.406,293.582z"/>
</g>
<path style="fill:#FBB071;" d="M445.406,201.972H255.999v91.61h189.407c9.864,0,17.86-7.997,17.86-17.86v-55.889
	C463.267,209.969,455.27,201.972,445.406,201.972z"/>
<path style="fill:#F6D86E;" d="M445.406,512H66.593c-9.864,0-17.86-7.997-17.86-17.86v-55.889c0-9.864,7.997-17.86,17.86-17.86
	h378.815c9.864,0,17.86,7.997,17.86,17.86v55.889C463.267,504.003,455.27,512,445.406,512z"/>
<path style="fill:#FBB071;" d="M445.406,420.39H255.999V512h189.407c9.864,0,17.86-7.997,17.86-17.86v-55.889
	C463.267,428.386,455.27,420.39,445.406,420.39z"/>
<g>
</g>
<g>
</g>
<g>
</g>
<g>
</g>
<g>
</g>
<g>
</g>
<g>
</g>
<g>
</g>
<g>
</g>
<g>
</g>
<g>
</g>
<g>
</g>
<g>
</g>
<g>
</g>
<g>
</g>
</svg>
