<?xml version="1.0" encoding="iso-8859-1"?>
<!-- Generator: Adobe Illustrator 19.0.0, SVG Export Plug-In . SVG Version: 6.00 Build 0)  -->
<svg version="1.1" id="Layer_1" xmlns="http://www.w3.org/2000/svg" xmlns:xlink="http://www.w3.org/1999/xlink" x="0px" y="0px"
	 viewBox="0 0 392.561 392.561" style="enable-background:new 0 0 392.561 392.561;" xml:space="preserve">
<path style="fill:#FFFFFF;" d="M38.776,124.824L177.96,254.052c2.263,2.069,3.491,4.913,3.491,7.952v90.634l29.802,12.606V262.068
	c0-3.038,1.228-5.947,3.491-7.952l139.184-129.228H38.776V124.824z"/>
<g>
	<path style="fill:#194F82;" d="M196.385,96.509h-0.065C195.997,96.509,196.32,96.509,196.385,96.509z"/>
	<path style="fill:#194F82;" d="M194.768,74.529h0.065C195.156,74.529,194.833,74.529,194.768,74.529z"/>
	<path style="fill:#194F82;" d="M391.811,110.02c-1.616-4.202-5.624-6.982-10.15-6.982H234.267
		c-4.719-16.485-21.398-28.509-39.434-28.509c-0.129,0-0.129,0-0.065,0c-9.051-0.776-16.097-8.404-16.097-17.648
		c0-9.762,7.952-17.713,17.713-17.713c9.762,0,17.713,7.952,17.713,17.713c0,6.012,4.848,10.925,10.925,10.925
		c6.012,0,10.925-4.848,10.925-10.925c0-18.036-12.154-33.164-28.574-37.947v-7.952c0-6.012-4.848-10.925-10.925-10.925
		c-6.012,0-10.925,4.848-10.925,10.925v8.016c-16.485,4.719-28.574,19.911-28.574,37.947c0,21.786,17.713,39.499,39.499,39.499
		c0.129,0,0.129,0,0.065,0c5.042,0.453,10.796,2.844,13.77,6.594H10.914c-4.461,0-8.469,2.78-10.149,6.982s-0.517,8.921,2.78,11.96
		l156.121,144.873v93.091c0,4.396,2.65,8.339,6.659,10.02l51.588,21.786c8.404,2.909,15.063-3.038,15.127-10.02V266.852
		L389.096,121.98C392.393,118.877,393.427,114.157,391.811,110.02z M214.679,254.117c-2.263,2.069-3.491,4.913-3.491,7.952v103.24
		l-29.802-12.606v-90.634c0-3.038-1.228-5.947-3.491-7.952L38.712,124.824h315.216L214.679,254.117z"/>
</g>
<path style="fill:#FFC10D;" d="M38.776,124.824l23.661,21.915h101.172c6.012,0,10.925,4.848,10.925,10.925
	s-4.848,10.925-10.925,10.925h-77.77l21.851,20.299h27.281c6.012,0,10.925,4.848,10.925,10.925c0,6.077-4.848,10.925-10.925,10.925
	h-3.814l46.675,43.378c2.263,2.069,3.491,4.913,3.491,7.952v90.634l29.802,12.606v-103.24c0-3.038,1.228-5.947,3.491-7.952
	l139.184-129.228H38.776V124.824z"/>
<path d="M196.385,96.509h-0.065C195.997,96.509,196.32,96.509,196.385,96.509z"/>
<g>
</g>
<g>
</g>
<g>
</g>
<g>
</g>
<g>
</g>
<g>
</g>
<g>
</g>
<g>
</g>
<g>
</g>
<g>
</g>
<g>
</g>
<g>
</g>
<g>
</g>
<g>
</g>
<g>
</g>
</svg>
