<?xml version="1.0" encoding="iso-8859-1"?>
<!-- Generator: Adobe Illustrator 19.1.0, SVG Export Plug-In . SVG Version: 6.00 Build 0)  -->
<svg version="1.1" id="Capa_1" xmlns="http://www.w3.org/2000/svg" xmlns:xlink="http://www.w3.org/1999/xlink" x="0px" y="0px"
	 viewBox="0 0 439.421 439.421" style="enable-background:new 0 0 439.421 439.421;" xml:space="preserve">
<g>
	<rect x="217.051" y="191.134" style="fill:#C6CDC9;" width="5.318" height="36.699"/>
	<path style="fill:#BB844C;" d="M174.719,75.25h-7.536v318.282h105.057V75.25h-7.537v300.772c0,2.485-2.015,4.5-4.5,4.5h-80.983
		c-2.485,0-4.5-2.015-4.5-4.5v-0.001V75.25z"/>
	<rect x="250.383" y="204.14" style="fill:#C6CDC9;" width="5.319" height="36.699"/>
	<path style="fill:#BB844C;" d="M255.702,93.556H183.72v71.982h71.982V93.556z M219.72,161.532l-0.565-0.005
		c-17.634-0.308-31.73-14.903-31.424-32.536c0.302-17.33,14.644-31.429,31.971-31.429l0.565,0.005
		c17.632,0.307,31.729,14.902,31.425,32.535C251.391,147.434,237.049,161.532,219.72,161.532z"/>
	<path style="fill:#CCB683;" d="M219.739,17.262c22.87,0.142,38.056,10.783,42.669,22.227h9.287C268.841,22.369,246.62,9,219.711,9
		c-26.909,0-49.129,13.369-51.983,30.489h9.278C181.632,27.828,196.872,17.079,219.739,17.262z"/>
	<rect x="156.969" y="423.197" style="fill:#BB844C;" width="125.483" height="7.224"/>
	<path style="fill:#E6E6E6;" d="M220.11,106.565l-0.408-0.003c-12.45,0-22.755,10.132-22.972,22.585
		c-0.22,12.672,9.91,23.16,22.582,23.382l0.408,0.003c12.451,0,22.756-10.132,22.973-22.585
		C242.911,117.275,232.781,106.787,220.11,106.565z M229.259,141.968c-0.817,0.629-1.782,0.933-2.739,0.933
		c-1.35,0-2.685-0.605-3.57-1.758l-6.806-8.854c-0.604-0.786-0.932-1.75-0.932-2.742v-9.91c0-2.485,2.015-4.5,4.5-4.5
		c2.485,0,4.5,2.015,4.5,4.5v8.381l5.873,7.641C231.599,137.628,231.229,140.453,229.259,141.968z"/>
	<rect x="183.719" y="204.14" style="fill:#C6CDC9;" width="5.319" height="36.699"/>
	<path style="fill:#929D79;" d="M183.719,371.522h71.983V249.839h-9.819c-2.485,0-4.5-2.015-4.5-4.5V199.64
		c0-2.485,2.015-4.5,4.5-4.5h2.66v-20.602h-24.332v7.596h2.658c2.485,0,4.5,2.015,4.5,4.5v45.699c0,2.485-2.015,4.5-4.5,4.5h-2.658
		v59.596c8.76,2.045,15.311,9.902,15.311,19.277c0,10.924-8.887,19.812-19.81,19.812c-10.925,0-19.813-8.888-19.813-19.812
		c0-9.375,6.551-17.231,15.312-19.277v-59.596h-2.66c-2.485,0-4.5-2.015-4.5-4.5v-45.699c0-2.485,2.015-4.5,4.5-4.5h2.66v-7.596
		h-24.332v20.602h2.659c2.485,0,4.5,2.015,4.5,4.5v45.699c0,2.485-2.015,4.5-4.5,4.5h-9.819V371.522z"/>
	<polygon style="fill:#CCB683;" points="159.712,414.197 279.708,414.197 273.942,402.532 165.478,402.532 	"/>
	<path style="fill:#EDD570;" d="M208.899,315.706c0,5.962,4.851,10.812,10.813,10.812c5.961,0,10.81-4.85,10.81-10.812
		c0-5.962-4.85-10.812-10.81-10.812C213.75,304.894,208.899,309.744,208.899,315.706z"/>
	<path style="fill:#CCB683;" d="M255.702,75.25h-3.995c-1.854,0-3.52-1.138-4.193-2.866c-4.36-11.192-15.533-18.712-27.803-18.712
		c-12.271,0-23.443,7.519-27.803,18.711c-0.673,1.729-2.338,2.867-4.193,2.867h-3.996v9.306h17.078
		c3.659-7.985,10.937-13.169,18.915-13.169c7.977,0,15.255,5.184,18.915,13.169h17.076V75.25z"/>
	<path style="fill:#BB844C;" d="M255.729,46.957c-0.01-0.011-0.018-0.023-0.029-0.034c-0.158-0.183-0.305-0.373-0.432-0.58
		c-0.008-0.013-0.014-0.026-0.021-0.039c-0.268-0.443-0.471-0.929-0.572-1.455c-1.512-7.126-12.328-18.445-34.992-18.587
		c-0.137-0.001-0.275-0.001-0.411-0.001c-22.287,0-32.992,11.357-34.525,18.588c-0.401,2.073-2.222,3.641-4.413,3.641h-28.861
		l3.319,17.761h29.988c6.387-13.024,20.046-21.578,34.931-21.578c14.884,0,28.542,8.554,34.931,21.578h29.987l3.318-17.761h-28.859
		C257.745,48.489,256.554,47.89,255.729,46.957z"/>
	<path style="fill:#BB844C;" d="M219.711,80.387c-3.129,0-6.11,1.556-8.365,4.169h16.73
		C225.821,81.942,222.84,80.387,219.711,80.387z"/>
	<path style="fill:#7C5F53;" d="M293.366,39.489h-12.599C278.071,17.399,251.727,0,219.711,0c-32.015,0-58.36,17.399-61.057,39.489
		h-12.599c-1.338,0-2.607,0.596-3.462,1.625c-0.855,1.029-1.208,2.386-0.961,3.701l5,26.761c0.398,2.13,2.257,3.674,4.423,3.674
		h7.128v321.73l-9.748,19.723c-0.025,0.05-0.466,0.736-0.466,1.994v16.224c0,2.485,2.015,4.5,4.5,4.5h134.483
		c2.485,0,4.5-2.015,4.5-4.5v-16.224c0-1.216-0.441-1.944-0.466-1.994l-9.747-19.721V75.25h7.127c2.167,0,4.025-1.544,4.424-3.674
		l5-26.761c0.245-1.315-0.107-2.672-0.962-3.701S294.704,39.489,293.366,39.489z M219.711,9c26.909,0,49.13,13.369,51.983,30.489
		h-9.287c-4.612-11.444-19.799-22.085-42.669-22.227c-22.867-0.183-38.106,10.566-42.733,22.227h-9.278
		C170.582,22.369,192.802,9,219.711,9z M282.452,423.197v7.224H156.969v-7.224H282.452z M179.219,380.522h80.983
		c2.485,0,4.5-2.015,4.5-4.5V75.25h7.537v318.282H167.183V75.25h7.536v300.771v0.001
		C174.719,378.507,176.733,380.522,179.219,380.522z M183.72,165.538V93.556h71.982v71.982H183.72z M255.702,204.14v36.699h-5.319
		V204.14H255.702z M222.369,227.833h-5.318v-36.699h5.318V227.833z M230.522,315.706c0,5.962-4.85,10.812-10.81,10.812
		c-5.962,0-10.813-4.85-10.813-10.812c0-5.962,4.851-10.812,10.813-10.812C225.673,304.894,230.522,309.744,230.522,315.706z
		 M211.346,84.556c2.255-2.613,5.236-4.169,8.365-4.169c3.129,0,6.11,1.556,8.365,4.169H211.346z M238.626,84.556
		c-3.66-7.985-10.938-13.169-18.915-13.169c-7.978,0-15.256,5.184-18.915,13.169h-17.078V75.25h3.996
		c1.855,0,3.52-1.139,4.193-2.867c4.359-11.191,15.532-18.711,27.803-18.711c12.269,0,23.442,7.519,27.803,18.712
		c0.674,1.729,2.339,2.866,4.193,2.866h3.995v9.306H238.626z M189.038,204.14v36.699h-5.319V204.14H189.038z M193.538,249.839
		c2.485,0,4.5-2.015,4.5-4.5V199.64c0-2.485-2.015-4.5-4.5-4.5h-2.659v-20.602h24.332v7.596h-2.66c-2.485,0-4.5,2.015-4.5,4.5
		v45.699c0,2.485,2.015,4.5,4.5,4.5h2.66v59.596c-8.76,2.046-15.312,9.902-15.312,19.277c0,10.924,8.888,19.812,19.813,19.812
		c10.924,0,19.81-8.888,19.81-19.812c0-9.375-6.552-17.232-15.311-19.277v-59.596h2.658c2.485,0,4.5-2.015,4.5-4.5v-45.699
		c0-2.485-2.015-4.5-4.5-4.5h-2.658v-7.596h24.332v20.602h-2.66c-2.485,0-4.5,2.015-4.5,4.5v45.699c0,2.485,2.015,4.5,4.5,4.5h9.819
		v121.683h-71.983V249.839H193.538z M273.942,402.532l5.766,11.665H159.712l5.766-11.665H273.942z M284.629,66.25h-29.987
		c-6.389-13.024-20.047-21.578-34.931-21.578c-14.885,0-28.544,8.554-34.931,21.578h-29.988l-3.319-17.761h28.861
		c2.191,0,4.012-1.567,4.413-3.641c1.533-7.231,12.238-18.588,34.525-18.588c0.135,0,0.274,0,0.411,0.001
		c22.664,0.142,33.48,11.461,34.992,18.587c0.102,0.526,0.305,1.012,0.572,1.455c0.008,0.013,0.014,0.026,0.021,0.039
		c0.127,0.207,0.273,0.397,0.432,0.58c0.011,0.011,0.02,0.023,0.029,0.034c0.824,0.933,2.016,1.532,3.358,1.532h28.859
		L284.629,66.25z"/>
	<path style="fill:#7C5F53;" d="M220.267,97.567l-0.565-0.005c-17.327,0-31.668,14.099-31.971,31.429
		c-0.306,17.633,13.79,32.229,31.424,32.536l0.565,0.005c17.329,0,31.67-14.099,31.971-31.43
		C251.996,112.47,237.898,97.874,220.267,97.567z M219.72,152.532l-0.408-0.003c-12.672-0.222-22.802-10.71-22.582-23.382
		c0.217-12.453,10.522-22.585,22.972-22.585l0.408,0.003c12.671,0.222,22.801,10.71,22.583,23.382
		C242.477,142.4,232.171,152.532,219.72,152.532z"/>
	<path style="fill:#7C5F53;" d="M224.211,128.018v-8.381c0-2.485-2.015-4.5-4.5-4.5c-2.485,0-4.5,2.015-4.5,4.5v9.91
		c0,0.992,0.328,1.956,0.932,2.742l6.806,8.854c0.886,1.153,2.221,1.758,3.57,1.758c0.957,0,1.922-0.304,2.739-0.933
		c1.971-1.515,2.34-4.34,0.825-6.31L224.211,128.018z"/>
</g>
<g>
</g>
<g>
</g>
<g>
</g>
<g>
</g>
<g>
</g>
<g>
</g>
<g>
</g>
<g>
</g>
<g>
</g>
<g>
</g>
<g>
</g>
<g>
</g>
<g>
</g>
<g>
</g>
<g>
</g>
</svg>
