<?xml version="1.0" ?><svg width="124px" height="124px" viewBox="0 0 124 124" data-name="Layer 1" id="Layer_1" xmlns="http://www.w3.org/2000/svg"><defs><style>.cls-1{fill:#ffdf81;}.cls-2{fill:#ffd44e;}.cls-3{fill:#fff8e1;}.cls-4{fill:#ffb100;}</style></defs><path class="cls-1" d="M80.84,30.34A26.28,26.28,0,0,1,63,23.42a.54.54,0,0,0-.73,0,26.39,26.39,0,0,1-28.92,4.47.53.53,0,0,0-.76.49V66.43a26.27,26.27,0,0,0,6.8,17.68,71.31,71.31,0,0,0,23,16,.54.54,0,0,0,.43,0,71.17,71.17,0,0,0,23-16,26.28,26.28,0,0,0,6.81-17.68V28.38a.54.54,0,0,0-.76-.49A26.34,26.34,0,0,1,80.84,30.34Z"/><path class="cls-2" d="M77.11,31.68A22.65,22.65,0,0,0,87.8,29.41a26.57,26.57,0,0,1-7,.93A26.28,26.28,0,0,1,63,23.42c-.21-.19-.15-.21-.36,0v2.93C67,29.1,71,31.41,77.11,31.68Z"/><path class="cls-2" d="M92,27.89a8.8,8.8,0,0,1-2.22.91c.28,0,.35-.66.35-.35V66.5a26.28,26.28,0,0,1-6.81,17.68s-9.07,10-21,15.87l.2.09a.54.54,0,0,0,.43,0,71.17,71.17,0,0,0,23-16,26.28,26.28,0,0,0,6.81-17.68V28.38A.54.54,0,0,0,92,27.89Z"/><path class="cls-3" d="M63,23.42a.54.54,0,0,0-.73,0,26.39,26.39,0,0,1-28.92,4.47.53.53,0,0,0-.76.49V66.43a26.27,26.27,0,0,0,6.8,17.68,58.6,58.6,0,0,0,4.64,4.43c-1.72-1.61-2.66-2.66-2.66-2.66A26.28,26.28,0,0,1,34.59,68.2V30.15a.53.53,0,0,1,.76-.49,26.3,26.3,0,0,0,11.12,2.45c6.86,0,12.07-3.3,16.2-5.78V23.78Z"/><path class="cls-4" d="M62.67,101a1.35,1.35,0,0,1-.52-.11,72.48,72.48,0,0,1-23.3-16.22,27.09,27.09,0,0,1-7-18.2V28.38a1.31,1.31,0,0,1,.61-1.11,1.3,1.3,0,0,1,1.25-.08,25.38,25.38,0,0,0,10.79,2.38,25.55,25.55,0,0,0,17.29-6.72,1.3,1.3,0,0,1,1.78,0,25.52,25.52,0,0,0,17.28,6.72,25.35,25.35,0,0,0,10.79-2.38,1.31,1.31,0,0,1,1.86,1.19V66.43a27,27,0,0,1-7,18.2,72.48,72.48,0,0,1-23.3,16.22A1.3,1.3,0,0,1,62.67,101ZM33.39,28.75V66.43A25.55,25.55,0,0,0,40,83.59a71.11,71.11,0,0,0,22.67,15.8,71,71,0,0,0,22.66-15.8,25.5,25.5,0,0,0,6.61-17.16V28.75a26.93,26.93,0,0,1-11.1,2.37,27.08,27.08,0,0,1-18.17-7,27.11,27.11,0,0,1-18.18,7A26.93,26.93,0,0,1,33.39,28.75Z"/><path class="cls-2" d="M87.09,34.69a28.66,28.66,0,0,1-13.62-.4,44,44,0,0,1-10.8-4.65h0l-.77.45c-.87.51-1.7,1-2.52,1.38a43.23,43.23,0,0,0,10.25,4.35,28.79,28.79,0,0,0,13.62.4.54.54,0,0,1,.67.52v27.6c0,4.49-.13,8.55-2.17,12.72-1.53,3.11-3.5,5.43-6.94,8.4-4.16,3.58-7.18,5.18-11.44,7.76l-1.06.63.36.14h0a24.72,24.72,0,0,0,4.54-2.29c4.26-2.58,7.27-4.18,11.43-7.76,3.44-3,5.41-5.29,6.94-8.4,2-4.16,2.17-8.22,2.17-12.72V35.21A.54.54,0,0,0,87.09,34.69Z"/><path class="cls-3" d="M61.17,93.11c-4.26-2.59-7.28-4.18-11.44-7.76-3.44-3-5.41-5.29-6.94-8.4-2-4.17-2.17-8.23-2.17-12.72V36.63a.54.54,0,0,1,.67-.52,28.79,28.79,0,0,0,13.62-.4,73.07,73.07,0,0,0,7.78-2.49V29.64c-1-.49.92.54,0,0h0l-.77.45a37.65,37.65,0,0,1-10,4.21,28.66,28.66,0,0,1-13.62.4.54.54,0,0,0-.66.52v27.6c0,4.5.12,8.56,2.17,12.72,1.53,3.11,3.5,5.44,6.94,8.4,4.16,3.58,7.17,5.18,11.43,7.76A24.4,24.4,0,0,0,62.67,94h0C62.16,93.7,61.65,93.4,61.17,93.11Z"/><path class="cls-4" d="M62.68,94.76h0a.75.75,0,0,1-.26,0,25.31,25.31,0,0,1-4.68-2.37L55.8,91.2a60.78,60.78,0,0,1-9.61-6.68c-3.59-3.1-5.59-5.52-7.13-8.65-2.08-4.24-2.25-8.25-2.25-13.06V35.21a1.3,1.3,0,0,1,.49-1,1.33,1.33,0,0,1,1.12-.26,27.88,27.88,0,0,0,13.25-.39,36.6,36.6,0,0,0,9.84-4.13l.77-.45a.73.73,0,0,1,.56-.08.85.85,0,0,1,.24.09l0,0a42.53,42.53,0,0,0,10.55,4.54,27.89,27.89,0,0,0,13.25.39,1.36,1.36,0,0,1,1.12.26,1.3,1.3,0,0,1,.49,1v27.6c0,4.81-.17,8.82-2.25,13.06-1.53,3.13-3.53,5.55-7.13,8.65a59.88,59.88,0,0,1-9.61,6.68l-1.93,1.15a25.21,25.21,0,0,1-4.67,2.37A.82.82,0,0,1,62.68,94.76ZM38.37,35.51v27.3c0,4.6.15,8.44,2.08,12.38,1.46,3,3.29,5.17,6.75,8.15a59.58,59.58,0,0,0,9.4,6.53L58.53,91a26,26,0,0,0,4.14,2.13A25.57,25.57,0,0,0,66.81,91l1.94-1.17a58.32,58.32,0,0,0,9.39-6.52c3.47-3,5.3-5.19,6.75-8.15C86.82,71.25,87,67.41,87,62.81V35.51A29.71,29.71,0,0,1,73.27,35a43.56,43.56,0,0,1-10.6-4.51l-.38.22A37.86,37.86,0,0,1,52.07,35,29.68,29.68,0,0,1,38.37,35.51Z"/><circle class="cls-1" cx="62.67" cy="58.93" r="9.41"/><path class="cls-3" d="M57.44,53.92a10.82,10.82,0,0,1,12.08-1.43c-.4-.71.41.4-.2-.21A9.41,9.41,0,0,0,56,65.59c.61.6-.54-.35.16,0C54.13,62.05,54.22,56.83,57.44,53.92Z"/><path class="cls-2" d="M67.58,63.84a9.41,9.41,0,0,1-11.32,1.51c.41.71-.85-.37-.24.24a9.41,9.41,0,1,0,13.3-13.31c-.6-.6.48.65-.23.25A9.4,9.4,0,0,1,67.58,63.84Z"/><path class="cls-4" d="M62.67,69.12A10.19,10.19,0,1,1,72.85,58.93,10.2,10.2,0,0,1,62.67,69.12Zm0-18.82a8.63,8.63,0,1,0,8.63,8.63A8.64,8.64,0,0,0,62.67,50.3Z"/><circle class="cls-1" cx="62.67" cy="59.27" r="5.05"/><path class="cls-3" d="M61,57.58a5,5,0,0,1,6.07-.81,4.87,4.87,0,0,0-.81-1.07,5,5,0,0,0-7.14,7.14,5.48,5.48,0,0,0,1.07.81A5,5,0,0,1,61,57.58Z"/><path class="cls-2" d="M64.36,61a5,5,0,0,1-6.07.81,5.48,5.48,0,0,0,.81,1.07,5,5,0,1,0,7.14-7.14,4.87,4.87,0,0,0-1.07-.81A5,5,0,0,1,64.36,61Z"/><path class="cls-4" d="M62.67,65.09a5.82,5.82,0,1,1,5.82-5.82A5.83,5.83,0,0,1,62.67,65.09Zm0-10.09a4.27,4.27,0,1,0,4.27,4.27A4.27,4.27,0,0,0,62.67,55Z"/><path class="cls-4" d="M49.46,44h-.05a.77.77,0,0,1-.72-.82l.3-4.75a.77.77,0,0,1,.77-.73h2.85a.78.78,0,0,1,0,1.55H50.49l-.26,4A.76.76,0,0,1,49.46,44Z"/><path class="cls-4" d="M49.76,39.27a.76.76,0,0,1-.7-.46L47.6,35.55a.76.76,0,0,1,.39-1,.77.77,0,0,1,1,.39l1.46,3.26a.77.77,0,0,1-.39,1A.71.71,0,0,1,49.76,39.27Z"/><path class="cls-4" d="M68,87.72a.78.78,0,0,1-.55-1.33L70,83.86,65.69,79a.77.77,0,0,1,.07-1.09.79.79,0,0,1,1.1.07l4.76,5.41a.77.77,0,0,1,0,1.06l-3,3A.78.78,0,0,1,68,87.72Z"/><path class="cls-4" d="M76.09,86.6a.86.86,0,0,1-.27,0l-5.06-1.93a.78.78,0,1,1,.55-1.45l5.06,1.93a.78.78,0,0,1-.28,1.5Z"/></svg>