<?xml version="1.0" encoding="iso-8859-1"?>
<!-- Generator: Adobe Illustrator 19.0.0, SVG Export Plug-In . SVG Version: 6.00 Build 0)  -->
<svg version="1.1" id="Layer_1" xmlns="http://www.w3.org/2000/svg" xmlns:xlink="http://www.w3.org/1999/xlink" x="0px" y="0px"
	 viewBox="0 0 512.001 512.001" style="enable-background:new 0 0 512.001 512.001;" xml:space="preserve">
<path style="fill:#FFC61B;" d="M256.001,512.001c-1.816,0-3.633-0.352-5.344-1.058c-1.955-0.804-48.404-20.076-95.599-51.396
	C89.065,415.75,55.602,371.28,55.602,327.373V71.769c0-4.779,2.433-9.231,6.457-11.811c4.024-2.577,9.085-2.935,13.428-0.94
	c13.865,6.364,28.692,9.592,44.066,9.592c40.666,0,78.205-23.78,95.631-60.583C217.505,3.126,222.442,0,227.865,0h56.27
	c5.423,0,10.361,3.126,12.681,8.027c6.359,13.429,15.311,25.183,26.604,34.932c5.866,5.064,6.517,13.924,1.454,19.789
	c-5.062,5.865-13.924,6.517-19.789,1.454c-11.978-10.339-21.873-22.468-29.497-36.14h-39.182
	c-23.494,41.954-68.418,68.607-116.852,68.607c-12.277,0-24.285-1.63-35.889-4.862v235.565
	c0,66.803,119.627,132.572,172.336,155.364c52.705-22.791,172.336-88.561,172.336-155.364V91.811
	c-11.605,3.231-23.611,4.862-35.889,4.862c-7.748,0-14.031-6.283-14.031-14.031s6.283-14.031,14.031-14.031
	c15.374,0,30.2-3.227,44.066-9.592c4.344-1.997,9.405-1.639,13.428,0.94c4.023,2.58,6.457,7.032,6.457,11.811v255.603
	c0,43.907-33.463,88.377-99.456,132.175c-47.195,31.32-93.644,50.592-95.599,51.396
	C259.634,511.649,257.817,512.001,256.001,512.001z"/>
<path style="fill:#FEE187;" d="M256.001,413.69c-14.411-7.31-33.637-17.817-52.472-30.426
	c-44.363-29.699-56.858-51.111-57.843-56.535v-170.15c41.216-5.664,80.263-24.703,110.315-53.749
	c30.052,29.046,69.099,48.084,110.315,53.749v170.148c-0.986,5.424-13.48,26.836-57.843,56.535
	C289.638,395.874,270.413,406.382,256.001,413.69z"/>
<g>
	<path style="fill:#FFC61B;" d="M256.001,427.721c-2.176,0-4.352-0.505-6.346-1.517c-13.56-6.877-33.923-17.887-53.93-31.281
		c-43.617-29.201-61.651-53.635-63.844-65.685c-0.15-0.828-0.226-1.668-0.226-2.51V156.58c0-7.011,5.175-12.946,12.12-13.901
		c38.197-5.25,74.589-22.986,102.474-49.938c5.44-5.256,14.063-5.256,19.503,0c27.885,26.952,64.279,44.687,102.474,49.938
		c6.944,0.956,12.12,6.889,12.12,13.901v170.147c0,0.842-0.076,1.682-0.226,2.51c-2.193,12.051-20.227,36.485-63.843,65.685
		c-20.008,13.394-40.37,24.404-53.931,31.281C260.354,427.216,258.178,427.721,256.001,427.721z M159.718,324.396
		c2.854,5.837,16.472,23.68,51.619,47.209c15.955,10.68,32.236,19.795,44.665,26.301c12.429-6.506,28.71-15.621,44.666-26.301
		c35.145-23.53,48.763-41.372,51.617-47.209V168.442c-35.301-7.024-68.763-23.248-96.284-46.677
		c-27.52,23.428-60.983,39.653-96.284,46.677V324.396z"/>
	<path style="fill:#FFC61B;" d="M249.868,302.227c-3.592,0-7.181-1.371-9.921-4.11l-41.06-41.06c-5.479-5.479-5.479-14.364,0-19.844
		c5.481-5.478,14.362-5.478,19.844,0l31.138,31.138l54.467-54.467c5.481-5.478,14.362-5.478,19.844,0
		c5.479,5.479,5.479,14.364,0,19.844l-64.39,64.39C257.05,300.857,253.46,302.227,249.868,302.227z"/>
</g>
<g>
</g>
<g>
</g>
<g>
</g>
<g>
</g>
<g>
</g>
<g>
</g>
<g>
</g>
<g>
</g>
<g>
</g>
<g>
</g>
<g>
</g>
<g>
</g>
<g>
</g>
<g>
</g>
<g>
</g>
</svg>
