<?xml version="1.0" encoding="iso-8859-1"?>
<!-- Generator: Adobe Illustrator 19.0.0, SVG Export Plug-In . SVG Version: 6.00 Build 0)  -->
<svg version="1.1" id="Layer_1" xmlns="http://www.w3.org/2000/svg" xmlns:xlink="http://www.w3.org/1999/xlink" x="0px" y="0px"
	 viewBox="0 0 511.988 511.988" style="enable-background:new 0 0 511.988 511.988;" xml:space="preserve">
<path style="fill:#5D9CEC;" d="M479.99,298.649c0,5.89-4.781,10.671-10.656,10.671c-5.906,0-10.688-4.781-10.688-10.671
	c0-5.891,4.781-10.656,10.688-10.656C475.209,287.993,479.99,292.759,479.99,298.649z"/>
<path style="fill:#FC6E51;" d="M394.646,21.327c0,5.891-4.766,10.672-10.656,10.672s-10.656-4.781-10.656-10.672
	s4.766-10.672,10.656-10.672S394.646,15.436,394.646,21.327z"/>
<path style="fill:#ED5564;" d="M138.661,501.316c0,5.891-4.773,10.672-10.664,10.672c-5.89,0-10.664-4.781-10.664-10.672
	s4.773-10.671,10.664-10.671C133.887,490.645,138.661,495.426,138.661,501.316z"/>
<circle style="fill:#FFCE54;" cx="42.666" cy="341.324" r="10.668"/>
<path style="fill:#48CFAD;" d="M127.996,21.327V10.655c0-5.89-4.773-10.655-10.664-10.655c-5.891,0-10.672,4.766-10.672,10.655
	v10.672c-5.89,0-10.664,4.766-10.664,10.672c0,5.891,4.773,10.656,10.664,10.656v10.672c0,5.891,4.781,10.672,10.672,10.672
	c5.891,0,10.664-4.781,10.664-10.672V42.655c5.891,0,10.664-4.766,10.664-10.656C138.661,26.093,133.887,21.327,127.996,21.327z"/>
<path style="fill:#AC92EB;" d="M447.99,426.646v-10.655c0-5.907-4.781-10.673-10.656-10.673c-5.906,0-10.688,4.766-10.688,10.673
	v10.655c-5.875,0-10.656,4.781-10.656,10.672s4.781,10.672,10.656,10.672v10.655c0,5.891,4.781,10.672,10.688,10.672
	c5.875,0,10.656-4.781,10.656-10.672V447.99c5.891,0,10.656-4.781,10.656-10.672S453.881,426.646,447.99,426.646z"/>
<path style="fill:#FFCE54;" d="M245.322,490.645c-3.719,0-7.289-1.125-10.328-3.266c-0.039-0.016-0.07-0.047-0.102-0.062
	C145.715,423.115,48.381,296.259,42.671,132.7c-0.008-0.25-0.008-0.516,0-0.766l0.07-1.859c0.148-9.922,8.132-18.016,17.945-18.203
	c32.515-1.297,114.067-10.171,172.371-64.279c3.312-3.109,7.601-4.875,12.078-4.938c0.117,0,0.234,0,0.352,0
	c3.383,0.062,6.664,1.062,9.508,2.906c0.508,0.328,0.984,0.688,1.421,1.094c0.438,0.297,0.852,0.625,1.243,0.984
	c58.24,54.077,139.895,62.936,172.457,64.232c9.688,0.188,17.594,8.219,17.797,18.094l0.062,1.125
	c0.016,0.312,0.016,0.625,0.016,0.938c-1.312,38.952-7.906,77.717-19.641,115.216c-10.672,34.14-25.656,67.451-44.516,98.998
	c-32.781,54.842-77.842,104.639-126.879,140.216c-0.047,0.031-0.086,0.062-0.125,0.078l-1.187,0.844
	C252.642,489.505,249.056,490.645,245.322,490.645z"/>
<path style="fill:#F6BB42;" d="M405.115,142.091c-20.781-2.25-41.219-6.25-60.717-11.875
	c-35.484-10.234-66.625-25.577-92.553-45.608c-3.836-2.969-9.195-2.969-13.039,0c-25.929,20.016-57.053,35.358-92.506,45.593
	c-19.539,5.656-39.983,9.656-60.788,11.891c-5.781,0.625-10,5.781-9.476,11.577c2.602,28.672,8.344,57.233,17.062,84.889
	c10.023,31.797,24.078,62.826,41.772,92.264c27.562,45.827,63.46,87.062,103.81,119.217c1.945,1.547,4.297,2.328,6.648,2.328
	s4.703-0.781,6.648-2.328c28.467-22.703,69.748-62.047,104.668-120.67c32.906-55.218,52.406-114.325,57.953-175.715
	C415.115,147.856,410.896,142.716,405.115,142.091z M338.336,318.445c-30.656,51.437-66.389,87.279-93.006,109.482
	c-35.28-29.484-67.811-67.593-92.178-108.107c-16.828-27.983-30.187-57.482-39.71-87.685c-7.211-22.891-12.273-46.421-15.085-70.108
	c18.39-2.5,36.468-6.297,53.866-11.328c35.132-10.155,66.413-25.046,93.1-44.342c26.688,19.296,57.982,34.202,93.154,44.357
	c17.373,5.016,35.42,8.797,53.811,11.297C385.865,216.526,367.74,269.088,338.336,318.445z"/>
<polygon style="fill:#ED5564;" points="191.988,223.995 245.322,191.996 298.648,223.995 298.648,287.993 245.322,319.992 
	191.988,287.993 "/>
<g>
	<polygon style="fill:#DA4453;" points="191.988,223.995 245.322,255.994 245.322,191.996 	"/>
	<polygon style="fill:#DA4453;" points="245.322,255.994 298.648,287.993 298.648,223.995 	"/>
	<polygon style="fill:#DA4453;" points="191.988,287.993 245.322,255.994 245.322,319.992 	"/>
</g>
<g>
</g>
<g>
</g>
<g>
</g>
<g>
</g>
<g>
</g>
<g>
</g>
<g>
</g>
<g>
</g>
<g>
</g>
<g>
</g>
<g>
</g>
<g>
</g>
<g>
</g>
<g>
</g>
<g>
</g>
</svg>
