<?xml version="1.0" encoding="iso-8859-1"?>
<!-- Generator: Adobe Illustrator 19.0.0, SVG Export Plug-In . SVG Version: 6.00 Build 0)  -->
<svg version="1.1" id="Layer_1" xmlns="http://www.w3.org/2000/svg" xmlns:xlink="http://www.w3.org/1999/xlink" x="0px" y="0px"
	 viewBox="0 0 512 512" style="enable-background:new 0 0 512 512;" xml:space="preserve">
<path style="fill:#CCC3A8;" d="M400.253,227.006l-83.633-70.373l0,0l-34.688-29.19l54.953-46.241l59.933-50.432h-51.863
	l-62.238,52.372L256,105.624l-88.954-74.853h-51.863l114.886,96.672l-118.321,99.562c-3.77,3.173-5.946,7.848-5.946,12.774
	c0,4.927,2.176,9.603,5.946,12.776l118.321,99.56l-8.253,6.944l-17.678,14.876l-3.358,2.825l-85.596,72.025h50.935h0.169h0.759
	l76.485-64.356h-0.001L256,373.937l12.471,10.494h-0.001l76.485,64.356h0.761h0.169h50.933l-106.633-89.726l-8.252-6.944
	l118.32-99.559c3.77-3.172,5.946-7.848,5.946-12.776C406.197,234.854,404.021,230.18,400.253,227.006z M240.334,112.544h28.383
	v28.939h-28.383V112.544z M268.419,354.639c0,6.86-5.56,12.42-12.419,12.42s-12.419-5.561-12.419-12.42v-5.583
	c0-6.859,5.56-12.419,12.419-12.419s12.419,5.561,12.419,12.419V354.639z M256,330.297l-107.571-90.515L256,149.265l13.064,10.994
	l10.943,9.207l21.206,17.844l62.358,52.471L256,330.297z"/>
<path style="fill:#BCAF8F;" d="M396.635,255.568l3.615-3.042c1.271-1.069,2.334-2.291,3.201-3.61
	c0.047-0.071,0.098-0.138,0.144-0.21c0.218-0.344,0.414-0.7,0.605-1.056c0.082-0.155,0.169-0.306,0.247-0.463
	c0.16-0.323,0.304-0.652,0.443-0.983c0.082-0.2,0.166-0.4,0.242-0.604c0.117-0.313,0.223-0.63,0.321-0.949
	c0.07-0.233,0.136-0.466,0.197-0.701c0.078-0.304,0.152-0.61,0.213-0.917c0.055-0.27,0.096-0.545,0.137-0.82
	c0.041-0.277,0.085-0.555,0.112-0.835c0.036-0.367,0.051-0.739,0.062-1.111c0.006-0.19,0.022-0.382,0.022-0.573
	c-0.007-1.2-0.138-2.385-0.394-3.537c-0.002-0.006-0.003-0.011-0.004-0.016c-0.129-0.58-0.29-1.151-0.48-1.711
	c-0.008-0.022-0.017-0.041-0.023-0.063c-0.187-0.544-0.401-1.08-0.643-1.601c-0.011-0.024-0.023-0.05-0.036-0.076
	c-0.242-0.514-0.509-1.016-0.803-1.505c-0.018-0.029-0.036-0.059-0.053-0.088c-0.295-0.483-0.613-0.951-0.955-1.404
	c-0.022-0.028-0.042-0.057-0.065-0.085c-0.727-0.946-1.557-1.821-2.487-2.603l-0.59-0.495c-6.083-4.676-14.799-4.677-20.91,0.465
	l-15.2,12.79l0.02,0.016L256,330.297l-107.571-90.515l0.02-0.017l-15.2-12.789c-6.113-5.144-14.832-5.142-20.915-0.461l-0.584,0.491
	c-0.47,0.395-0.915,0.816-1.336,1.257c-0.001,0.001-0.002,0.002-0.003,0.003c-0.405,0.426-0.785,0.873-1.14,1.336
	c-0.026,0.033-0.052,0.069-0.077,0.102c-0.338,0.445-0.652,0.908-0.943,1.384c-0.022,0.036-0.045,0.071-0.066,0.107
	c-0.289,0.482-0.553,0.977-0.791,1.485c-0.016,0.031-0.031,0.063-0.046,0.095c-0.238,0.514-0.449,1.042-0.632,1.577
	c-0.01,0.029-0.022,0.058-0.031,0.087c-0.187,0.551-0.344,1.113-0.472,1.683c-0.003,0.014-0.008,0.027-0.011,0.041
	c-0.255,1.148-0.386,2.331-0.393,3.527c-0.001,0.201,0.017,0.401,0.023,0.601c0.011,0.362,0.026,0.723,0.06,1.082
	c0.027,0.286,0.071,0.569,0.114,0.853c0.04,0.269,0.08,0.538,0.134,0.805c0.062,0.311,0.137,0.621,0.216,0.928
	c0.061,0.232,0.124,0.461,0.194,0.689c0.099,0.322,0.206,0.642,0.324,0.959c0.073,0.2,0.157,0.396,0.238,0.593
	c0.139,0.334,0.284,0.666,0.445,0.992c0.076,0.154,0.163,0.303,0.243,0.455c0.193,0.358,0.39,0.716,0.609,1.062
	c0.045,0.07,0.095,0.136,0.139,0.205c0.868,1.322,1.932,2.544,3.204,3.614l3.615,3.042h-0.037l114.74,96.548l-8.253,6.944
	l-17.678,14.876l-3.358,2.825l-85.596,72.025h50.935h0.169h0.759l76.485-64.356h-0.001L256,373.937l12.471,10.494h-0.001
	l76.485,64.356h0.761h0.169h50.933l-106.633-89.726l-8.252-6.944l114.739-96.548h-0.037V255.568z M268.419,354.639
	c0,6.86-5.56,12.42-12.419,12.42s-12.419-5.561-12.419-12.42v-5.583c0-6.859,5.56-12.419,12.419-12.419s12.419,5.561,12.419,12.419
	V354.639z"/>
<path style="fill:#F28838;" d="M340.68,0.557h-13.022H184.343h-83.85c-7.704,0-13.95,6.245-13.95,13.95v3.428
	c0,7.704,6.245,13.95,13.95,13.95h83.85h143.315h83.848c7.704,0,13.95-6.245,13.95-13.95v-3.428c0-7.704-6.245-13.95-13.95-13.95
	h-43.005"/>
<path style="fill:#FFB92E;" d="M425.476,486.292l-15.344-34.645c-1.071-2.416-3.464-3.974-6.105-3.974H107.974
	c-2.641,0-5.034,1.557-6.105,3.974l-15.344,34.645c-0.915,2.065-0.722,4.453,0.509,6.347c1.232,1.893,3.339,3.036,5.597,3.036
	H419.37c2.258,0,4.365-1.142,5.597-3.036C426.199,490.745,426.391,488.358,425.476,486.292z"/>
<path style="fill:#EF9A1D;" d="M112.632,492.639c-1.231-1.893-1.424-4.282-0.509-6.347l15.344-34.645
	c1.071-2.416,3.464-3.974,6.105-3.974h-25.6c-2.641,0-5.034,1.557-6.105,3.974l-15.344,34.645c-0.915,2.065-0.722,4.453,0.509,6.347
	c1.232,1.893,3.339,3.036,5.597,3.036h25.6C115.971,495.675,113.865,494.533,112.632,492.639z"/>
<g>
	<path style="fill:#FFB92E;" d="M256,316.83c-19.302,0-34.95,15.648-34.95,34.95s15.648,34.948,34.95,34.948
		s34.95-15.647,34.95-34.948C290.95,332.478,275.302,316.83,256,316.83z M256,362.164c-5.734,0-10.382-4.649-10.382-10.384
		s4.648-10.385,10.382-10.385c5.734,0,10.385,4.65,10.385,10.385C266.385,357.515,261.734,362.164,256,362.164z"/>
	<path style="fill:#FFB92E;" d="M256,92.893c-19.302,0-34.95,15.648-34.95,34.95S236.699,162.79,256,162.79
		s34.95-15.647,34.95-34.947C290.95,108.542,275.302,92.893,256,92.893z M256,138.227c-5.734,0-10.382-4.649-10.382-10.384
		s4.648-10.384,10.382-10.384c5.734,0,10.385,4.649,10.385,10.384S261.734,138.227,256,138.227z"/>
</g>
<g>
	<path style="fill:#F28838;" d="M256.002,375.963c-13.337,0-24.185-10.848-24.185-24.183c0-13.336,10.848-24.184,24.185-24.184
		c13.334,0,24.183,10.849,24.183,24.184S269.336,375.963,256.002,375.963z M256.002,344.291c-4.131,0-7.49,3.359-7.49,7.489
		c0,4.128,3.359,7.487,7.49,7.487c4.128,0,7.487-3.358,7.487-7.487C263.49,347.651,260.13,344.291,256.002,344.291z"/>
	<path style="fill:#F28838;" d="M256.002,152.026c-13.337,0-24.185-10.848-24.185-24.183s10.848-24.185,24.185-24.185
		c13.334,0,24.183,10.849,24.183,24.185C280.185,141.178,269.336,152.026,256.002,152.026z M256.002,120.354
		c-4.131,0-7.49,3.36-7.49,7.49c0,4.128,3.359,7.487,7.49,7.487c4.128,0,7.487-3.359,7.487-7.487
		C263.49,123.714,260.13,120.354,256.002,120.354z"/>
	<path style="fill:#F28838;" d="M498.05,480.116h-83.848h-53.296H331.97H97.798H13.95c-7.704,0-13.95,6.245-13.95,13.95v3.428
		c0,7.704,6.245,13.95,13.95,13.95h83.848h316.405h83.848c7.704,0,13.95-6.245,13.95-13.95v-3.428
		C512,486.361,505.755,480.116,498.05,480.116z"/>
</g>
<g>
	<path style="fill:#EA6428;" d="M109.615,17.934v-3.428c0-7.704,6.245-13.95,13.95-13.95h-23.071c-7.704,0-13.95,6.245-13.95,13.95
		v3.428c0,7.704,6.245,13.95,13.95,13.95h23.072C115.861,31.884,109.615,25.639,109.615,17.934z"/>
	<path style="fill:#EA6428;" d="M23.072,497.494v-3.428c0-7.704,6.244-13.95,13.95-13.95H13.95c-7.704,0-13.95,6.245-13.95,13.95
		v3.428c0,7.704,6.245,13.95,13.95,13.95h23.072C29.316,511.443,23.072,505.198,23.072,497.494z"/>
</g>
<g>
</g>
<g>
</g>
<g>
</g>
<g>
</g>
<g>
</g>
<g>
</g>
<g>
</g>
<g>
</g>
<g>
</g>
<g>
</g>
<g>
</g>
<g>
</g>
<g>
</g>
<g>
</g>
<g>
</g>
</svg>
