<?xml version="1.0" encoding="iso-8859-1"?>
<!-- Generator: Adobe Illustrator 19.0.0, SVG Export Plug-In . SVG Version: 6.00 Build 0)  -->
<svg version="1.1" id="Layer_1" xmlns="http://www.w3.org/2000/svg" xmlns:xlink="http://www.w3.org/1999/xlink" x="0px" y="0px"
	 viewBox="0 0 512 512" style="enable-background:new 0 0 512 512;" xml:space="preserve">
<path style="fill:#E4EAF6;" d="M184.307,467.862h143.386c15.734-15.066,25.41-36.026,25.41-61.793C353.103,324.138,256,256,256,256
	s-97.103,68.138-97.103,150.069C158.897,431.836,168.573,452.796,184.307,467.862z"/>
<g>
	<rect x="123.586" y="35.31" style="fill:#AA6955;" width="17.655" height="441.379"/>
	<rect x="370.759" y="35.31" style="fill:#AA6955;" width="17.655" height="441.379"/>
	<path style="fill:#AA6955;" d="M397.241,494.345H114.759V476.69c0-4.875,3.953-8.828,8.828-8.828h264.828
		c4.875,0,8.828,3.953,8.828,8.828V494.345z"/>
</g>
<path style="fill:#B9785F;" d="M397.241,512H114.759c-4.875,0-8.828-3.953-8.828-8.828v-8.828c0-4.875,3.953-8.828,8.828-8.828
	h282.483c4.875,0,8.828,3.953,8.828,8.828v8.828C406.069,508.047,402.116,512,397.241,512z"/>
<path style="fill:#AA6955;" d="M114.759,17.655h282.483V35.31c0,4.875-3.953,8.828-8.828,8.828H123.586
	c-4.875,0-8.828-3.953-8.828-8.828V17.655z"/>
<path style="fill:#B9785F;" d="M114.759,0h282.483c4.875,0,8.828,3.953,8.828,8.828v8.828c0,4.875-3.953,8.828-8.828,8.828H114.759
	c-4.875,0-8.828-3.953-8.828-8.828V8.828C105.931,3.953,109.884,0,114.759,0z"/>
<path style="fill:#E4EAF6;" d="M327.693,44.138H184.307c-15.734,15.066-25.41,36.026-25.41,61.793C158.897,187.862,256,256,256,256
	s97.103-68.138,97.103-150.069C353.103,80.164,343.427,59.204,327.693,44.138z"/>
<g>
	<circle style="fill:#B9785F;" cx="132.414" cy="256" r="17.655"/>
	<circle style="fill:#B9785F;" cx="379.586" cy="256" r="17.655"/>
</g>
<g>
	<path style="fill:#FFD782;" d="M202.067,176.552c17.914,25.965,40.9,46.558,53.916,57.15c12.992-10.605,35.948-31.218,53.865-57.15
		H202.067z"/>
	<path style="fill:#FFD782;" d="M309.934,335.448H291.31c-19.501,0-35.31-15.809-35.31-35.31c0,19.501-15.809,35.31-35.31,35.31
		h-18.537c-14.432,20.888-25.601,45.219-25.601,70.621c0,17.124,5.283,32.246,15.351,44.138h128.195
		c10.067-11.892,15.35-27.014,15.35-44.138C335.448,380.621,324.324,356.306,309.934,335.448z"/>
</g>
<g>
</g>
<g>
</g>
<g>
</g>
<g>
</g>
<g>
</g>
<g>
</g>
<g>
</g>
<g>
</g>
<g>
</g>
<g>
</g>
<g>
</g>
<g>
</g>
<g>
</g>
<g>
</g>
<g>
</g>
</svg>
