<?xml version="1.0" encoding="iso-8859-1"?>
<!-- Generator: Adobe Illustrator 19.0.0, SVG Export Plug-In . SVG Version: 6.00 Build 0)  -->
<svg version="1.1" id="Layer_1" xmlns="http://www.w3.org/2000/svg" xmlns:xlink="http://www.w3.org/1999/xlink" x="0px" y="0px"
	 viewBox="0 0 512 512" style="enable-background:new 0 0 512 512;" xml:space="preserve">
<path style="fill:#7C7A75;" d="M145.747,448.913h219.36c-9.957-51.497-55.273-90.391-109.679-90.391
	S155.705,397.415,145.747,448.913z"/>
<path style="fill:#CCC3A8;" d="M411.615,88.527l-4.433,7.677l-15.548,26.93l-2.827,4.898c-0.029-0.027-0.062-0.052-0.092-0.08
	l-4.433,7.677l-15.548,26.93L255.59,358.526c11.554,0.017,22.691,1.796,33.167,5.069l22.784-39.459
	c0.039,0.013,0.078,0.023,0.117,0.034l27.174-47.063l13.192-22.85l86.53-149.876C428.422,101.058,419.264,95.6,411.615,88.527z"/>
<path style="fill:#E35F46;" d="M496.778,118.767c0.273-0.354,0.551-0.705,0.817-1.065c0.486-0.656,0.955-1.324,1.419-1.997
	c0.16-0.231,0.329-0.455,0.485-0.689c0.601-0.891,1.179-1.796,1.739-2.713c0.212-0.345,0.41-0.699,0.616-1.047
	c0.355-0.604,0.71-1.209,1.048-1.824c0.22-0.4,0.431-0.805,0.644-1.209c0.306-0.582,0.609-1.167,0.901-1.759
	c0.207-0.418,0.408-0.838,0.606-1.262c0.281-0.6,0.554-1.204,0.818-1.812c0.182-0.416,0.365-0.833,0.54-1.254
	c0.273-0.66,0.532-1.326,0.787-1.996c0.143-0.376,0.293-0.749,0.43-1.128c0.337-0.931,0.653-1.87,0.953-2.817
	c0.039-0.122,0.083-0.243,0.122-0.366c0.332-1.067,0.634-2.146,0.917-3.233c0.094-0.359,0.173-0.723,0.262-1.084
	c0.182-0.744,0.358-1.49,0.518-2.243c0.09-0.428,0.17-0.856,0.253-1.286c0.135-0.702,0.263-1.407,0.379-2.116
	c0.072-0.446,0.14-0.895,0.205-1.344c0.102-0.715,0.192-1.433,0.273-2.153c0.05-0.44,0.102-0.877,0.143-1.319
	c0.074-0.783,0.13-1.571,0.18-2.362c0.023-0.38,0.057-0.756,0.073-1.136c0.056-1.172,0.089-2.348,0.089-3.534
	c0-40.563-32.882-73.447-73.447-73.447c-40.563,0-73.447,32.882-73.447,73.447c0,1.185,0.034,2.362,0.09,3.534
	c0.019,0.381,0.05,0.757,0.073,1.136c0.05,0.791,0.105,1.579,0.18,2.362c0.042,0.441,0.093,0.88,0.143,1.319
	c0.081,0.721,0.171,1.439,0.273,2.153c0.064,0.449,0.132,0.897,0.205,1.344c0.116,0.71,0.243,1.414,0.378,2.116
	c0.083,0.43,0.163,0.858,0.253,1.286c0.159,0.753,0.335,1.499,0.518,2.243c0.088,0.36,0.168,0.724,0.261,1.084
	c0.284,1.087,0.587,2.166,0.918,3.233c0.038,0.123,0.083,0.245,0.122,0.369c0.3,0.946,0.616,1.885,0.952,2.814
	c0.138,0.38,0.289,0.754,0.432,1.131c0.254,0.67,0.513,1.336,0.787,1.996c0.173,0.42,0.355,0.834,0.538,1.25
	c0.265,0.61,0.538,1.215,0.82,1.816c0.2,0.422,0.4,0.843,0.607,1.26c0.291,0.592,0.593,1.176,0.9,1.759
	c0.212,0.404,0.424,0.81,0.644,1.209c0.34,0.614,0.692,1.219,1.048,1.824c0.205,0.349,0.404,0.703,0.615,1.047
	c0.562,0.917,1.139,1.824,1.739,2.713c0.158,0.233,0.325,0.458,0.486,0.689c0.464,0.672,0.933,1.34,1.418,1.997
	c0.267,0.36,0.545,0.711,0.818,1.065c0.285,0.371,0.562,0.749,0.855,1.114l0.062,0.053c5.784,7.209,12.897,13.298,20.971,17.904
	l0.08,0.069c0.277,0.158,0.558,0.304,0.836,0.458c0.239,0.132,0.476,0.264,0.717,0.393c0.896,0.482,1.801,0.948,2.72,1.393
	c0.17,0.082,0.345,0.16,0.516,0.242c0.811,0.386,1.631,0.755,2.458,1.112c0.225,0.097,0.449,0.195,0.674,0.29
	c0.95,0.398,1.911,0.777,2.881,1.136c0.207,0.076,0.412,0.147,0.619,0.22c0.855,0.307,1.716,0.599,2.583,0.874
	c0.204,0.066,0.405,0.132,0.61,0.195c1.001,0.308,2.01,0.594,3.03,0.86c0.23,0.061,0.461,0.115,0.691,0.173
	c0.913,0.229,1.831,0.442,2.756,0.635c0.168,0.036,0.334,0.074,0.503,0.11c1.044,0.211,2.099,0.396,3.16,0.564
	c0.25,0.039,0.501,0.074,0.752,0.112c0.992,0.145,1.988,0.275,2.991,0.381c0.109,0.011,0.217,0.027,0.325,0.038
	c1.086,0.109,2.18,0.188,3.279,0.25c0.264,0.014,0.528,0.026,0.792,0.039c1.117,0.05,2.237,0.084,3.364,0.084
	c1.129,0,2.249-0.034,3.364-0.084c0.264-0.013,0.53-0.026,0.792-0.039c1.099-0.062,2.196-0.141,3.282-0.25
	c0.109-0.011,0.214-0.027,0.323-0.038c1.004-0.105,2.001-0.235,2.992-0.381c0.251-0.037,0.502-0.072,0.752-0.112
	c1.061-0.167,2.114-0.352,3.161-0.564c0.168-0.034,0.334-0.073,0.502-0.11c0.925-0.194,1.844-0.406,2.755-0.635
	c0.231-0.058,0.462-0.113,0.692-0.173c1.018-0.265,2.028-0.552,3.028-0.86c0.204-0.063,0.405-0.13,0.61-0.195
	c0.868-0.275,1.73-0.567,2.583-0.874c0.207-0.073,0.414-0.144,0.619-0.22c0.971-0.359,1.93-0.739,2.881-1.136
	c0.227-0.094,0.451-0.193,0.675-0.291c0.827-0.355,1.647-0.725,2.458-1.111c0.172-0.081,0.345-0.16,0.518-0.242
	c0.917-0.444,1.822-0.911,2.719-1.393c0.24-0.129,0.479-0.261,0.716-0.393c0.278-0.153,0.56-0.301,0.835-0.458l0.08-0.069
	c8.075-4.607,15.188-10.696,20.972-17.904l0.062-0.053C496.216,119.516,496.492,119.138,496.778,118.767z"/>
<path style="fill:#6D6C69;" d="M267.088,359.148c-3.835-0.398-7.719-0.625-11.661-0.625c-54.406,0-99.722,38.893-109.681,90.391
	h23.322C178.307,401.144,217.972,364.244,267.088,359.148z"/>
<path style="fill:#D8422E;" d="M447.212,145.999c-0.169-0.034-0.335-0.073-0.503-0.11c-0.925-0.194-1.844-0.406-2.756-0.635
	c-0.23-0.058-0.461-0.113-0.691-0.173c-1.018-0.265-2.028-0.552-3.03-0.86c-0.204-0.063-0.405-0.13-0.61-0.195
	c-0.867-0.275-1.729-0.567-2.583-0.874c-0.207-0.073-0.412-0.144-0.619-0.22c-0.969-0.359-1.93-0.739-2.881-1.136
	c-0.225-0.094-0.449-0.193-0.674-0.29c-0.826-0.356-1.646-0.725-2.458-1.112c-0.171-0.081-0.346-0.16-0.516-0.242
	c-0.918-0.444-1.825-0.911-2.72-1.393c-0.241-0.129-0.479-0.261-0.717-0.393c-0.279-0.153-0.56-0.301-0.836-0.458l-0.08-0.069
	c-8.074-4.607-15.187-10.696-20.971-17.904l-0.062-0.053c-0.293-0.365-0.57-0.743-0.855-1.114c-0.273-0.354-0.552-0.705-0.818-1.065
	c-0.486-0.656-0.954-1.324-1.418-1.997c-0.161-0.231-0.329-0.455-0.486-0.689c-0.6-0.891-1.177-1.796-1.739-2.713
	c-0.21-0.345-0.41-0.699-0.615-1.047c-0.357-0.604-0.71-1.209-1.048-1.824c-0.22-0.4-0.432-0.805-0.644-1.209
	c-0.307-0.582-0.61-1.167-0.9-1.759c-0.208-0.418-0.408-0.838-0.607-1.26c-0.282-0.601-0.554-1.206-0.82-1.816
	c-0.182-0.416-0.364-0.831-0.538-1.25c-0.274-0.66-0.533-1.326-0.787-1.996c-0.143-0.376-0.294-0.751-0.432-1.131
	c-0.336-0.93-0.653-1.869-0.952-2.814c-0.039-0.123-0.084-0.245-0.122-0.369c-0.331-1.067-0.634-2.146-0.918-3.233
	c-0.093-0.359-0.173-0.723-0.261-1.084c-0.182-0.744-0.359-1.49-0.518-2.243c-0.09-0.428-0.17-0.856-0.253-1.286
	c-0.134-0.702-0.262-1.407-0.378-2.116c-0.072-0.446-0.141-0.895-0.205-1.344c-0.102-0.715-0.192-1.433-0.273-2.153
	c-0.05-0.44-0.101-0.877-0.143-1.319c-0.074-0.783-0.13-1.571-0.18-2.362c-0.023-0.38-0.056-0.756-0.073-1.136
	c-0.056-1.172-0.09-2.348-0.09-3.534c0-36.594,26.767-66.928,61.786-72.515c-3.798-0.606-7.692-0.932-11.661-0.932
	c-40.563,0-73.447,32.882-73.447,73.447c0,1.185,0.034,2.362,0.09,3.534c0.019,0.381,0.05,0.757,0.073,1.136
	c0.05,0.791,0.105,1.579,0.18,2.362c0.042,0.441,0.093,0.88,0.143,1.319c0.081,0.721,0.171,1.439,0.273,2.153
	c0.064,0.449,0.132,0.897,0.205,1.344c0.116,0.71,0.243,1.414,0.378,2.116c0.083,0.43,0.163,0.858,0.253,1.286
	c0.159,0.753,0.335,1.499,0.518,2.243c0.088,0.36,0.168,0.724,0.261,1.084c0.284,1.087,0.587,2.166,0.918,3.233
	c0.038,0.123,0.083,0.245,0.122,0.369c0.3,0.946,0.616,1.885,0.952,2.814c0.138,0.38,0.289,0.754,0.432,1.131
	c0.254,0.67,0.513,1.336,0.787,1.996c0.173,0.42,0.355,0.834,0.538,1.25c0.265,0.61,0.538,1.215,0.82,1.816
	c0.2,0.422,0.4,0.843,0.607,1.26c0.291,0.592,0.593,1.176,0.9,1.759c0.212,0.404,0.424,0.81,0.644,1.209
	c0.34,0.614,0.692,1.219,1.048,1.824c0.205,0.349,0.404,0.703,0.615,1.047c0.562,0.917,1.139,1.824,1.739,2.713
	c0.158,0.233,0.325,0.458,0.486,0.689c0.464,0.672,0.933,1.34,1.418,1.997c0.267,0.36,0.545,0.711,0.818,1.065
	c0.285,0.371,0.562,0.749,0.855,1.114l0.062,0.053c5.784,7.209,12.897,13.298,20.971,17.904l0.08,0.069
	c0.277,0.158,0.558,0.304,0.836,0.458c0.239,0.132,0.476,0.264,0.717,0.393c0.896,0.482,1.801,0.948,2.72,1.393
	c0.17,0.082,0.345,0.16,0.516,0.242c0.811,0.386,1.631,0.755,2.458,1.112c0.225,0.097,0.449,0.195,0.674,0.29
	c0.95,0.398,1.911,0.777,2.881,1.136c0.207,0.076,0.412,0.147,0.619,0.22c0.855,0.307,1.716,0.599,2.583,0.874
	c0.204,0.066,0.405,0.132,0.61,0.195c1.001,0.308,2.01,0.594,3.03,0.86c0.23,0.061,0.461,0.116,0.691,0.173
	c0.913,0.229,1.831,0.442,2.756,0.635c0.168,0.036,0.334,0.074,0.503,0.11c1.044,0.211,2.099,0.396,3.16,0.564
	c0.25,0.039,0.501,0.074,0.752,0.112c0.992,0.145,1.988,0.275,2.991,0.381c0.109,0.011,0.217,0.027,0.325,0.038
	c1.086,0.109,2.18,0.188,3.279,0.25c0.264,0.014,0.528,0.026,0.792,0.039c1.117,0.05,2.237,0.084,3.364,0.084
	c1.129,0,2.249-0.034,3.364-0.084c0.264-0.013,0.53-0.026,0.792-0.039c1.099-0.062,2.196-0.141,3.282-0.25
	c0.109-0.011,0.214-0.027,0.323-0.038c1.004-0.106,2.001-0.235,2.992-0.381c0.251-0.037,0.502-0.072,0.752-0.112
	c0.053-0.009,0.104-0.02,0.157-0.028C449.208,146.374,448.205,146.2,447.212,145.999z"/>
<path style="fill:#FFB92E;" d="M408.896,479.631l-12.712-27.926c-1.083-2.377-3.453-3.902-6.065-3.902H120.737
	c-2.611,0-4.982,1.526-6.065,3.902l-12.713,27.926c-0.938,2.062-0.764,4.462,0.461,6.367c1.226,1.906,3.338,3.057,5.604,3.057
	h294.808c2.267,0,4.377-1.152,5.603-3.057C409.662,484.092,409.836,481.693,408.896,479.631z"/>
<path style="fill:#EF9A1D;" d="M125.743,485.997c-1.226-1.906-1.399-4.305-0.461-6.367l12.713-27.926
	c1.083-2.377,3.453-3.902,6.065-3.902h-23.322c-2.611,0-4.982,1.526-6.065,3.902l-12.713,27.926
	c-0.938,2.062-0.764,4.462,0.461,6.367c1.226,1.906,3.338,3.057,5.604,3.057h23.322C129.08,489.055,126.969,487.903,125.743,485.997
	z"/>
<path style="fill:#CCC3A8;" d="M496.936,480.17h-83.66H97.579h-83.66C6.231,480.17,0,486.402,0,494.089v3.421
	c0,7.687,6.231,13.919,13.919,13.919h83.66h251.009h31.096h33.592h83.66c7.687,0,13.919-6.231,13.919-13.919v-3.421
	C510.855,486.402,504.624,480.17,496.936,480.17z"/>
<path style="fill:#C9B585;" d="M23.322,497.509v-3.421c0-7.687,6.231-13.919,13.919-13.919H13.919C6.231,480.17,0,486.402,0,494.089
	v3.421c0,7.687,6.231,13.919,13.919,13.919H37.24C29.553,511.429,23.322,505.197,23.322,497.509z"/>
<path style="opacity:0.15;fill:#F5F5F5;enable-background:new    ;" d="M474.849,109.758c13.45,0,25.566-5.685,34.098-14.774
	c0.234-0.793,0.469-1.585,0.677-2.388c0.094-0.359,0.173-0.723,0.262-1.084c0.182-0.744,0.358-1.49,0.518-2.243
	c0.09-0.428,0.17-0.856,0.253-1.286c0.135-0.702,0.263-1.407,0.379-2.116c0.072-0.446,0.14-0.895,0.205-1.344
	c0.102-0.715,0.192-1.433,0.273-2.153c0.05-0.44,0.102-0.877,0.143-1.319c0.074-0.783,0.13-1.571,0.18-2.362
	c0.023-0.38,0.057-0.756,0.073-1.136c0.056-1.172,0.089-2.348,0.089-3.534c0-22.787-10.379-43.151-26.667-56.623
	c-3.373-0.772-6.879-1.194-10.485-1.194c-25.836,0-46.778,20.943-46.778,46.777C428.071,88.815,449.013,109.758,474.849,109.758z"/>
<g>
</g>
<g>
</g>
<g>
</g>
<g>
</g>
<g>
</g>
<g>
</g>
<g>
</g>
<g>
</g>
<g>
</g>
<g>
</g>
<g>
</g>
<g>
</g>
<g>
</g>
<g>
</g>
<g>
</g>
</svg>
